<svg width="252" height="235" xmlns="http://www.w3.org/2000/svg" xmlns:xlink="http://www.w3.org/1999/xlink" overflow="hidden"><defs><clipPath id="clip0"><path d="M934 414 1186 414 1186 649 934 649Z" fill-rule="evenodd" clip-rule="evenodd"/></clipPath></defs><g clip-path="url(#clip0)" transform="translate(-934 -414)"><path d="M1111 452C1111 431.565 1127.79 415 1148.5 415 1169.21 415 1186 431.565 1186 452 1186 472.435 1169.21 489 1148.5 489 1127.79 489 1111 472.435 1111 452Z" fill="#3E8BC3" fill-rule="evenodd"/><path d="M935 611C935 590.565 951.789 574 972.5 574 993.211 574 1010 590.565 1010 611 1010 631.435 993.211 648 972.5 648 951.789 648 935 631.435 935 611Z" fill="#3E8BC3" fill-rule="evenodd"/><path d="M1023 456.172C1023 453.868 1024.87 452 1027.17 452L1093.83 452C1096.13 452 1098 453.868 1098 456.172L1098 606.828C1098 609.132 1096.13 611 1093.83 611L1027.17 611C1024.87 611 1023 609.132 1023 606.828Z" fill="#3E8BC3" fill-rule="evenodd"/><path d="M1023 452C1023 431.565 1039.79 415 1060.5 415 1081.21 415 1098 431.565 1098 452 1098 472.435 1081.21 489 1060.5 489 1039.79 489 1023 472.435 1023 452Z" fill="#3E8BC3" fill-rule="evenodd"/><path d="M1023 611C1023 590.565 1039.79 574 1060.5 574 1081.21 574 1098 590.565 1098 611 1098 631.435 1081.21 648 1060.5 648 1039.79 648 1023 631.435 1023 611Z" fill="#3E8BC3" fill-rule="evenodd"/><rect x="1090" y="439" width="29" height="26" fill="#3E8BC3"/><rect x="1000" y="598" width="29" height="26" fill="#3E8BC3"/></g></svg>